<?xml version="1.0" encoding="utf-8"?>
<!-- Generator: Adobe Illustrator 27.4.0, SVG Export Plug-In . SVG Version: 6.00 Build 0)  -->
<svg version="1.1" id="Layer_1" xmlns="http://www.w3.org/2000/svg" xmlns:xlink="http://www.w3.org/1999/xlink" x="0px" y="0px"
	 viewBox="0 0 154.9 149.3" style="enable-background:new 0 0 154.9 149.3;" xml:space="preserve">
<style type="text/css">
	.st0{fill:#FFFFFF;}
</style>
<path class="st0" d="M145.1,48.7l-12.7-13.3l19.9-9.6c2.2-1.2,2.7-4.2,1-6.1L137.6,3.1c-1.3-1.4-3.5-1.6-5.1-0.4l-31.7,23.1
	c-1.9,1.4-2.2,4.1-0.6,5.8l13,13.7L85.4,61.7c-2.2,1.3-2.6,4.2-0.9,6c0.9,1,2.3,1.4,3.7,1.1l55-13.6
	C146.1,54.4,147.2,50.8,145.1,48.7z"/>
<path class="st0" d="M138.1,120.7l-3.9-14.3l17.6,0.9c2,0,3.5-1.9,3-3.9L150,85.6c-0.4-1.5-1.9-2.4-3.4-2.2l-30.9,4.1
	c-1.9,0.2-3.1,2.1-2.6,3.9l4,14.7l-25.7,0.9c-2,0.1-3.4,2-2.9,3.9c0.3,1,1.1,1.9,2.2,2.2l43.7,11.5
	C136.6,125,138.7,122.9,138.1,120.7z"/>
<path class="st0" d="M38.6,15.9l14.1,4.6l0-17.6c0.1-2,2.1-3.4,4-2.8l17.5,5.7c1.5,0.5,2.3,2,2.1,3.5l-5.7,30.7
	c-0.3,1.8-2.2,3-4,2.4l-14.5-4.7L50,63.4c-0.2,2-2.2,3.3-4,2.7c-1-0.3-1.8-1.2-2.1-2.3l-9.3-44.3C34.2,17.2,36.4,15.2,38.6,15.9z"/>
<path class="st0" d="M72.9,127.3l-16.4-7c-0.7-0.3-1.5-0.4-2.2-0.2c-0.7,0.2-1.4,0.6-1.9,1.2l-7.3,8.9c-11.4-5.4-20.6-14.6-26-26
	L28,97c0.6-0.5,1-1.1,1.2-1.9c0.2-0.7,0.1-1.5-0.2-2.2l-7-16.4c-0.3-0.8-0.9-1.4-1.6-1.7c-0.7-0.4-1.6-0.5-2.4-0.3L2.7,78
	c-0.8,0.2-1.5,0.6-2,1.2C0.3,79.8,0,80.6,0,81.4c0,37.6,30.5,68,68,68c0.8,0,1.6-0.3,2.2-0.8c0.6-0.5,1.1-1.2,1.2-2l3.5-15.2
	c0.2-0.8,0.1-1.7-0.3-2.4C74.2,128.3,73.6,127.7,72.9,127.3z"/>
</svg>
